<?xml version="1.0" standalone="no"?>
<!DOCTYPE svg PUBLIC "-//W3C//DTD SVG 20010904//EN"
 "http://www.w3.org/TR/2001/REC-SVG-20010904/DTD/svg10.dtd">
<svg version="1.0" xmlns="http://www.w3.org/2000/svg"
 width="1275.000000pt" height="1651.000000pt" viewBox="0 0 1275.000000 1651.000000"
 preserveAspectRatio="xMidYMid meet">

<g transform="translate(0.000000,1651.000000) scale(0.100000,-0.100000)"
fill="#000000" stroke="none">
<path d="M1343 15303 c13 -4 17 -15 17 -58 0 -71 7 -85 39 -84 25 0 25 0 4 9
-21 8 -23 16 -23 75 0 65 0 65 -27 64 -17 -1 -21 -3 -10 -6z"/>
<path d="M1740 15300 c0 -5 5 -10 10 -10 6 0 10 5 10 10 0 6 -4 10 -10 10 -5
0 -10 -4 -10 -10z"/>
<path d="M1900 15285 c0 -22 -3 -24 -30 -19 -25 5 -31 2 -41 -20 -9 -19 -10
-35 -3 -54 8 -22 16 -27 47 -28 l37 -1 0 73 c0 41 -2 74 -5 74 -3 0 -5 -11 -5
-25z m-11 -47 c10 -28 -1 -62 -22 -66 -19 -4 -31 30 -23 64 8 30 34 31 45 2z"/>
<path d="M1211 15287 c-36 -45 -15 -127 33 -127 32 0 51 25 51 70 0 21 -7 45
-14 54 -16 19 -54 21 -70 3z m59 -28 c21 -39 -7 -99 -38 -80 -17 10 -25 57
-12 80 14 27 36 27 50 0z"/>
<path d="M1452 15218 l3 -53 43 -1 42 -2 0 54 c0 30 -4 54 -10 54 -5 0 -10
-20 -10 -44 0 -31 -5 -46 -16 -50 -26 -10 -34 2 -34 50 0 24 -5 44 -11 44 -6
0 -9 -21 -7 -52z"/>
<path d="M1570 15213 c0 -29 5 -53 10 -53 6 0 10 20 10 44 0 25 5 48 10 51 6
4 10 -13 10 -44 0 -28 5 -51 10 -51 6 0 10 20 10 44 0 25 5 48 10 51 6 4 10
-13 10 -44 0 -29 5 -51 11 -51 6 0 9 21 7 53 l-3 52 -47 1 -48 1 0 -54z"/>
<path d="M1723 15263 c13 -3 17 -15 17 -48 0 -37 -3 -44 -22 -48 -13 -2 2 -4
32 -4 30 0 45 2 33 4 -20 4 -23 11 -23 54 0 47 -1 49 -27 48 -17 -1 -21 -3
-10 -6z"/>
<path d="M1962 15258 c-7 -7 -12 -26 -12 -43 0 -36 15 -55 45 -55 25 0 52 16
42 26 -3 4 -13 1 -22 -6 -18 -15 -45 -6 -45 15 0 11 10 15 35 15 27 0 35 4 35
18 0 24 -19 42 -45 42 -12 0 -26 -5 -33 -12z m56 -15 c2 -8 -6 -13 -22 -13
-25 0 -33 10 -19 24 10 10 36 3 41 -11z"/>
</g>
</svg>
